<svg width="174" height="52" viewBox="0 0 174 52" fill="none" xmlns="http://www.w3.org/2000/svg">
<path d="M18.033 12.329C24.531 12.329 27.78 16.262 27.78 24.128V37.295C27.78 38.549 27.381 39.537 26.583 40.259C25.823 40.981 24.778 41.342 23.448 41.342C22.118 41.342 21.073 40.981 20.313 40.259C19.553 39.537 19.173 38.549 19.173 37.295V24.014C19.173 22.342 18.812 21.107 18.09 20.309C17.406 19.473 16.323 19.055 14.841 19.055C13.055 19.055 11.611 19.625 10.509 20.765C9.445 21.905 8.913 23.425 8.913 25.325V37.295C8.913 38.549 8.533 39.537 7.773 40.259C7.013 40.981 5.968 41.342 4.638 41.342C3.308 41.342 2.244 40.981 1.446 40.259C0.686 39.537 0.306 38.549 0.306 37.295V4.463C0.306 3.285 0.705 2.335 1.503 1.613C2.339 0.890998 3.422 0.529998 4.752 0.529998C6.006 0.529998 7.013 0.871998 7.773 1.556C8.533 2.24 8.913 3.152 8.913 4.292V16.718C9.901 15.274 11.174 14.191 12.732 13.469C14.29 12.709 16.057 12.329 18.033 12.329ZM72.3384 35.585C72.6424 36.269 72.7944 36.877 72.7944 37.409C72.7944 38.473 72.3574 39.385 71.4834 40.145C70.6474 40.867 69.6784 41.228 68.5764 41.228C67.8544 41.228 67.1704 41.038 66.5244 40.658C65.8784 40.24 65.3844 39.632 65.0424 38.834L62.0214 32.108H42.6984L39.6774 38.834C39.3354 39.632 38.8414 40.24 38.1954 40.658C37.5874 41.038 36.9034 41.228 36.1434 41.228C35.0414 41.228 34.0534 40.867 33.1794 40.145C32.3054 39.385 31.8684 38.473 31.8684 37.409C31.8684 36.877 32.0204 36.269 32.3244 35.585L47.7144 3.266C48.1324 2.354 48.7594 1.67 49.5954 1.214C50.4314 0.719999 51.3244 0.472999 52.2744 0.472999C53.2624 0.472999 54.1744 0.719999 55.0104 1.214C55.8464 1.708 56.4924 2.392 56.9484 3.266L72.3384 35.585ZM45.7194 25.382H59.0004L52.3884 10.562L45.7194 25.382ZM94.3391 12.329C96.7331 12.329 98.8611 12.956 100.723 14.21C102.623 15.426 104.086 17.155 105.112 19.397C106.176 21.601 106.708 24.147 106.708 27.035C106.708 29.923 106.176 32.469 105.112 34.673C104.086 36.839 102.642 38.511 100.78 39.689C98.9181 40.867 96.7711 41.456 94.3391 41.456C92.4391 41.456 90.7101 41.076 89.1521 40.316C87.6321 39.518 86.4541 38.416 85.6181 37.01V47.783C85.6181 48.923 85.2381 49.835 84.4781 50.519C83.7181 51.203 82.7111 51.545 81.4571 51.545C80.1271 51.545 79.0441 51.184 78.2081 50.462C77.4101 49.74 77.0111 48.79 77.0111 47.612V16.49C77.0111 15.274 77.3911 14.305 78.1511 13.583C78.9491 12.823 79.9941 12.443 81.2861 12.443C82.5781 12.443 83.6041 12.823 84.3641 13.583C85.1241 14.305 85.5041 15.274 85.5041 16.49V16.946C86.3401 15.502 87.5371 14.381 89.0951 13.583C90.6531 12.747 92.4011 12.329 94.3391 12.329ZM91.8311 34.901C93.8451 34.901 95.4031 34.236 96.5051 32.906C97.6071 31.538 98.1581 29.581 98.1581 27.035C98.1581 24.451 97.6071 22.456 96.5051 21.05C95.4031 19.606 93.8451 18.884 91.8311 18.884C89.8171 18.884 88.2591 19.587 87.1571 20.993C86.0551 22.361 85.5041 24.337 85.5041 26.921C85.5041 29.467 86.0551 31.443 87.1571 32.849C88.2591 34.217 89.8171 34.901 91.8311 34.901ZM129.296 12.329C131.69 12.329 133.818 12.956 135.68 14.21C137.58 15.426 139.043 17.155 140.069 19.397C141.133 21.601 141.665 24.147 141.665 27.035C141.665 29.923 141.133 32.469 140.069 34.673C139.043 36.839 137.599 38.511 135.737 39.689C133.875 40.867 131.728 41.456 129.296 41.456C127.396 41.456 125.667 41.076 124.109 40.316C122.589 39.518 121.411 38.416 120.575 37.01V47.783C120.575 48.923 120.195 49.835 119.435 50.519C118.675 51.203 117.668 51.545 116.414 51.545C115.084 51.545 114.001 51.184 113.165 50.462C112.367 49.74 111.968 48.79 111.968 47.612V16.49C111.968 15.274 112.348 14.305 113.108 13.583C113.906 12.823 114.951 12.443 116.243 12.443C117.535 12.443 118.561 12.823 119.321 13.583C120.081 14.305 120.461 15.274 120.461 16.49V16.946C121.297 15.502 122.494 14.381 124.052 13.583C125.61 12.747 127.358 12.329 129.296 12.329ZM126.788 34.901C128.802 34.901 130.36 34.236 131.462 32.906C132.564 31.538 133.115 29.581 133.115 27.035C133.115 24.451 132.564 22.456 131.462 21.05C130.36 19.606 128.802 18.884 126.788 18.884C124.774 18.884 123.216 19.587 122.114 20.993C121.012 22.361 120.461 24.337 120.461 26.921C120.461 29.467 121.012 31.443 122.114 32.849C123.216 34.217 124.774 34.901 126.788 34.901ZM165.464 14.894C165.806 14.096 166.281 13.507 166.889 13.127C167.535 12.747 168.219 12.557 168.941 12.557C170.043 12.557 171.012 12.918 171.847 13.64C172.684 14.324 173.102 15.16 173.102 16.148C173.102 16.68 172.969 17.212 172.703 17.744L157.37 49.208C156.99 50.006 156.477 50.595 155.831 50.975C155.185 51.393 154.501 51.602 153.779 51.602C152.715 51.602 151.784 51.26 150.986 50.576C150.188 49.892 149.789 49.056 149.789 48.068C149.789 47.46 149.922 46.89 150.188 46.358L153.95 38.549L143.804 17.744C143.576 17.212 143.462 16.699 143.462 16.205C143.462 15.179 143.899 14.305 144.773 13.583C145.685 12.861 146.711 12.5 147.851 12.5C148.611 12.5 149.314 12.709 149.96 13.127C150.606 13.507 151.119 14.096 151.499 14.894L158.567 30.284L165.464 14.894Z" fill="black"/>
</svg>
