<svg width="252" height="74" viewBox="0 0 252 74" fill="none" xmlns="http://www.w3.org/2000/svg">
<path d="M63.9739 18.7786V44.9078C63.9739 55.2784 55.5339 63.6863 45.1237 63.6863H43.217L33.4805 73.3795C33.0992 73.7594 32.5717 74 31.987 74C31.4467 74 30.9574 73.8037 30.5824 73.4745L30.4172 73.3099L30.4108 73.3036L20.7569 63.6863H18.8439C8.44003 63.6863 0 55.2784 0 44.9078V18.7786C0 8.40794 8.44003 0 18.8503 0H45.1237C55.5339 0 63.9739 8.40794 63.9739 18.7786Z" fill="#FFD666"/>
<path d="M14.895 36.197C13.0392 36.197 11.9814 38.3036 13.0582 39.8248C17.2449 45.7501 24.1677 49.6133 31.99 49.6133C39.8123 49.6133 46.7289 45.7437 50.9155 39.8248C51.9923 38.3036 50.9345 36.197 49.0787 36.197H14.895Z" fill="white"/>
<path d="M25.764 27.2298H14.5658V21.6036C14.5658 18.4977 17.074 15.9774 20.1649 15.9774C23.2558 15.9774 25.764 18.4977 25.764 21.6036V27.2298Z" fill="white"/>
<path d="M49.4148 27.2298H38.2166V21.6036C38.2166 18.4977 40.7248 15.9774 43.8157 15.9774C46.9066 15.9774 49.4148 18.4977 49.4148 21.6036V27.2298Z" fill="white"/>
<path d="M96.033 23.329C102.531 23.329 105.78 27.262 105.78 35.128V48.295C105.78 49.549 105.381 50.537 104.583 51.259C103.823 51.981 102.778 52.342 101.448 52.342C100.118 52.342 99.073 51.981 98.313 51.259C97.553 50.537 97.173 49.549 97.173 48.295V35.014C97.173 33.342 96.812 32.107 96.09 31.309C95.406 30.473 94.323 30.055 92.841 30.055C91.055 30.055 89.611 30.625 88.509 31.765C87.445 32.905 86.913 34.425 86.913 36.325V48.295C86.913 49.549 86.533 50.537 85.773 51.259C85.013 51.981 83.968 52.342 82.638 52.342C81.308 52.342 80.244 51.981 79.446 51.259C78.686 50.537 78.306 49.549 78.306 48.295V15.463C78.306 14.285 78.705 13.335 79.503 12.613C80.339 11.891 81.422 11.53 82.752 11.53C84.006 11.53 85.013 11.872 85.773 12.556C86.533 13.24 86.913 14.152 86.913 15.292V27.718C87.901 26.274 89.174 25.191 90.732 24.469C92.29 23.709 94.057 23.329 96.033 23.329ZM150.338 46.585C150.642 47.269 150.794 47.877 150.794 48.409C150.794 49.473 150.357 50.385 149.483 51.145C148.647 51.867 147.678 52.228 146.576 52.228C145.854 52.228 145.17 52.038 144.524 51.658C143.878 51.24 143.384 50.632 143.042 49.834L140.021 43.108H120.698L117.677 49.834C117.335 50.632 116.841 51.24 116.195 51.658C115.587 52.038 114.903 52.228 114.143 52.228C113.041 52.228 112.053 51.867 111.179 51.145C110.305 50.385 109.868 49.473 109.868 48.409C109.868 47.877 110.02 47.269 110.324 46.585L125.714 14.266C126.132 13.354 126.759 12.67 127.595 12.214C128.431 11.72 129.324 11.473 130.274 11.473C131.262 11.473 132.174 11.72 133.01 12.214C133.846 12.708 134.492 13.392 134.948 14.266L150.338 46.585ZM123.719 36.382H137L130.388 21.562L123.719 36.382ZM172.339 23.329C174.733 23.329 176.861 23.956 178.723 25.21C180.623 26.426 182.086 28.155 183.112 30.397C184.176 32.601 184.708 35.147 184.708 38.035C184.708 40.923 184.176 43.469 183.112 45.673C182.086 47.839 180.642 49.511 178.78 50.689C176.918 51.867 174.771 52.456 172.339 52.456C170.439 52.456 168.71 52.076 167.152 51.316C165.632 50.518 164.454 49.416 163.618 48.01V58.783C163.618 59.923 163.238 60.835 162.478 61.519C161.718 62.203 160.711 62.545 159.457 62.545C158.127 62.545 157.044 62.184 156.208 61.462C155.41 60.74 155.011 59.79 155.011 58.612V27.49C155.011 26.274 155.391 25.305 156.151 24.583C156.949 23.823 157.994 23.443 159.286 23.443C160.578 23.443 161.604 23.823 162.364 24.583C163.124 25.305 163.504 26.274 163.504 27.49V27.946C164.34 26.502 165.537 25.381 167.095 24.583C168.653 23.747 170.401 23.329 172.339 23.329ZM169.831 45.901C171.845 45.901 173.403 45.236 174.505 43.906C175.607 42.538 176.158 40.581 176.158 38.035C176.158 35.451 175.607 33.456 174.505 32.05C173.403 30.606 171.845 29.884 169.831 29.884C167.817 29.884 166.259 30.587 165.157 31.993C164.055 33.361 163.504 35.337 163.504 37.921C163.504 40.467 164.055 42.443 165.157 43.849C166.259 45.217 167.817 45.901 169.831 45.901ZM207.296 23.329C209.69 23.329 211.818 23.956 213.68 25.21C215.58 26.426 217.043 28.155 218.069 30.397C219.133 32.601 219.665 35.147 219.665 38.035C219.665 40.923 219.133 43.469 218.069 45.673C217.043 47.839 215.599 49.511 213.737 50.689C211.875 51.867 209.728 52.456 207.296 52.456C205.396 52.456 203.667 52.076 202.109 51.316C200.589 50.518 199.411 49.416 198.575 48.01V58.783C198.575 59.923 198.195 60.835 197.435 61.519C196.675 62.203 195.668 62.545 194.414 62.545C193.084 62.545 192.001 62.184 191.165 61.462C190.367 60.74 189.968 59.79 189.968 58.612V27.49C189.968 26.274 190.348 25.305 191.108 24.583C191.906 23.823 192.951 23.443 194.243 23.443C195.535 23.443 196.561 23.823 197.321 24.583C198.081 25.305 198.461 26.274 198.461 27.49V27.946C199.297 26.502 200.494 25.381 202.052 24.583C203.61 23.747 205.358 23.329 207.296 23.329ZM204.788 45.901C206.802 45.901 208.36 45.236 209.462 43.906C210.564 42.538 211.115 40.581 211.115 38.035C211.115 35.451 210.564 33.456 209.462 32.05C208.36 30.606 206.802 29.884 204.788 29.884C202.774 29.884 201.216 30.587 200.114 31.993C199.012 33.361 198.461 35.337 198.461 37.921C198.461 40.467 199.012 42.443 200.114 43.849C201.216 45.217 202.774 45.901 204.788 45.901ZM243.464 25.894C243.806 25.096 244.281 24.507 244.889 24.127C245.535 23.747 246.219 23.557 246.941 23.557C248.043 23.557 249.012 23.918 249.847 24.64C250.684 25.324 251.102 26.16 251.102 27.148C251.102 27.68 250.969 28.212 250.703 28.744L235.37 60.208C234.99 61.006 234.477 61.595 233.831 61.975C233.185 62.393 232.501 62.602 231.779 62.602C230.715 62.602 229.784 62.26 228.986 61.576C228.188 60.892 227.789 60.056 227.789 59.068C227.789 58.46 227.922 57.89 228.188 57.358L231.95 49.549L221.804 28.744C221.576 28.212 221.462 27.699 221.462 27.205C221.462 26.179 221.899 25.305 222.773 24.583C223.685 23.861 224.711 23.5 225.851 23.5C226.611 23.5 227.314 23.709 227.96 24.127C228.606 24.507 229.119 25.096 229.499 25.894L236.567 41.284L243.464 25.894Z" fill="white"/>
</svg>
